<?xml version="1.0" encoding="UTF-8" standalone="no"?>
<!-- Created with Inkscape (http://www.inkscape.org/) -->

<svg
   xmlns:dc="http://purl.org/dc/elements/1.1/"
   xmlns:cc="http://creativecommons.org/ns#"
   xmlns:rdf="http://www.w3.org/1999/02/22-rdf-syntax-ns#"
   xmlns:svg="http://www.w3.org/2000/svg"
   xmlns="http://www.w3.org/2000/svg"
   xmlns:sodipodi="http://sodipodi.sourceforge.net/DTD/sodipodi-0.dtd"
   xmlns:inkscape="http://www.inkscape.org/namespaces/inkscape"
   id="svg4171"
   version="1.1"
   inkscape:version="0.91 r13725"
   width="1161.901"
   height="254.19635"
   viewBox="0 0 1161.901 254.19635"
   sodipodi:docname="LogoEIG.svg">
  <metadata
     id="metadata4177">
    <rdf:RDF>
      <cc:Work
         rdf:about="">
        <dc:format>image/svg+xml</dc:format>
        <dc:type
           rdf:resource="http://purl.org/dc/dcmitype/StillImage" />
        <dc:title></dc:title>
      </cc:Work>
    </rdf:RDF>
  </metadata>
  <defs
     id="defs4175" />
  <sodipodi:namedview
     pagecolor="#ffffff"
     bordercolor="#666666"
     borderopacity="1"
     objecttolerance="10"
     gridtolerance="10"
     guidetolerance="10"
     inkscape:pageopacity="0"
     inkscape:pageshadow="2"
     inkscape:window-width="1280"
     inkscape:window-height="752"
     id="namedview4173"
     showgrid="false"
     fit-margin-top="0"
     fit-margin-left="0"
     fit-margin-right="0"
     fit-margin-bottom="0"
     inkscape:zoom="0.46163566"
     inkscape:cx="555.95899"
     inkscape:cy="139.84765"
     inkscape:window-x="0"
     inkscape:window-y="0"
     inkscape:window-maximized="1"
     inkscape:current-layer="svg4171" />
  <g
     id="g4257"
     transform="translate(1.7331501,-128.75666)">
    <path
       style="fill:#eb1c24"
       d="m 762.66775,348.55062 c -7.84973,-1.70524 -13.97618,-5.09795 -19.95421,-11.05026 -23.11033,-23.01095 -9.50971,-63.33496 23.07275,-68.40758 8.69768,-1.35411 17.7243,0.25328 26.2419,4.67294 9.04336,4.69246 9.22671,5.18913 4.49047,12.16356 -2.15643,3.17548 -4.09485,5.7736 -4.30759,5.7736 -0.21275,0 -2.22141,-1.23815 -4.46369,-2.75144 -10.15732,-6.85509 -23.35639,-6.00166 -31.58382,2.04217 -12.05709,11.78805 -8.73755,34.41958 6.03544,41.14771 4.74297,2.16012 14.50905,2.28169 20.45799,0.25468 l 4.38576,-1.49437 0,-11.16188 0,-11.16187 8.4375,0 8.4375,0 0,14.01498 0,14.01499 -3.04688,2.8891 c -4.36677,4.14065 -13.32067,8.25101 -20.39062,9.36049 -7.55872,1.18617 -11.23099,1.12291 -17.8125,-0.30682 z m 75.21577,-0.17624 c -9.59347,-2.58279 -15.84062,-7.58395 -19.89857,-15.9298 -3.23719,-6.65783 -3.33489,-20.31401 -0.19423,-27.14795 2.94072,-6.39884 8.70624,-12.01502 15.43412,-15.03431 5.09267,-2.28546 6.42483,-2.4848 14.17259,-2.12079 12.04235,0.56577 19.40873,4.65158 24.71695,13.70937 2.17986,3.71966 2.58643,5.60954 2.90314,13.49494 l 0.3683,9.16954 -22.14028,0 c -12.17716,0 -22.14029,0.35948 -22.14029,0.79886 0,1.8991 4.48477,7.12073 7.48538,8.71526 4.82693,2.56503 12.62306,2.31114 18.36983,-0.59824 l 4.61047,-2.33412 4.58306,4.58305 4.58304,4.58304 -5.05026,3.33811 c -5.34244,3.53124 -14.01738,6.26759 -19.54411,6.16484 -1.82526,-0.0339 -5.54188,-0.66024 -8.25914,-1.3918 z m 20.63612,-38.15588 c -2.06301,-8.13289 -11.48842,-11.56423 -19.93242,-7.25642 -3.33217,1.69995 -6.54447,5.81405 -6.54447,8.38174 0,0.64154 4.70101,0.98406 13.50598,0.98406 l 13.50598,0 z m 120.78692,38.1783 c -6.16903,-1.72916 -9.75825,-3.88068 -14.32687,-8.58801 -5.65341,-5.82493 -7.72013,-11.52627 -7.75275,-21.38716 -0.0244,-7.36168 0.30431,-9.11414 2.57812,-13.74426 2.862,-5.82794 7.78613,-10.79202 13.99228,-14.10576 3.46388,-1.84947 5.40253,-2.14998 13.87041,-2.14998 8.8591,0 10.3127,0.24952 14.53125,2.49442 9.8114,5.22102 14.0077,12.29513 15.0647,25.3962 l 0.6619,8.20313 -22.58015,0 -22.5802,0 0.99103,2.8428 c 2.90447,8.33186 17.44453,11.25661 26.25102,5.28043 l 3.153,-2.13969 4.4671,4.90953 4.4671,4.90955 -3.2517,2.48021 c -7.6067,5.80199 -20.25649,8.19973 -29.53624,5.59859 z m 21.48624,-36.56778 c 0,-0.27437 -0.6074,-1.95264 -1.34985,-3.72947 -2.7616,-6.60926 -12.10154,-9.06583 -19.23198,-5.0583 -3.29691,1.85297 -6.60572,5.99009 -6.60572,8.2594 0,0.69741 4.36462,1.02723 13.59375,1.02723 7.47656,0 13.5938,-0.22448 13.5938,-0.49886 z m 87.1301,36.7192 c -8.1913,-2.20888 -13.2673,-7.27415 -14.986,-14.95455 -2.1928,-9.79813 2.6366,-17.861 12.4423,-20.77297 3.0358,-0.90155 8.6092,-1.43032 15.0759,-1.43032 l 10.2596,0 -0.6004,-3.00181 c -0.7977,-3.98879 -3.7424,-6.97138 -7.4817,-7.5782 -3.9861,-0.64685 -11.2359,0.7454 -16.0719,3.08646 -2.1229,1.0277 -4.0889,1.86855 -4.3686,1.86855 -0.2799,0 -2.0155,-2.26934 -3.8572,-5.04297 l -3.3483,-5.04298 4.3875,-2.37421 c 7.6389,-4.13366 14.4891,-5.6088 23.976,-5.16303 9.5922,0.45072 14.5671,2.39297 18.695,7.29869 3.8308,4.55272 4.3619,8.40142 4.3674,31.65263 l 0.01,21.79687 -7.5,0 -7.5,0 0,-3.82305 0,-3.82306 -3.8048,3.25683 c -3.5376,3.028 -9.751,5.41173 -13.7197,5.26351 -0.9318,-0.0348 -3.6184,-0.58218 -5.9704,-1.21639 z m 17.7603,-14.31161 c 2.3738,-1.66265 4.7971,-6.60399 4.7971,-9.78161 0,-1.91729 -0.3457,-1.98286 -8.8097,-1.67074 -7.043,0.25972 -9.205,0.683 -10.7812,2.1108 -2.5016,2.26602 -2.5475,6.5444 -0.097,8.99532 2.4295,2.42949 11.6113,2.64299 14.8904,0.34623 z m 35.7346,-27.06498 0,-42.65625 9.375,0 9.375,0 0,42.65625 0,42.65625 -9.375,0 -9.375,0 z m -253.12505,11.71875 0,-30 7.96875,0 7.96875,0 0,2.8125 c 0,1.54687 0.15982,2.8125 0.35517,2.8125 0.19534,0 2.83206,-1.50588 5.85938,-3.34639 5.23259,-3.18126 5.85838,-3.33147 12.68163,-3.04393 6.28457,0.26484 7.67718,0.66447 11.19476,3.2126 2.23997,1.62261 5.28609,5.1469 6.88509,7.9658 l 2.86772,5.05567 0.30872,22.26562 0.30872,22.26563 -8.51185,0 -8.51184,0 -0.004,-20.39063 c -0.003,-18.72581 -0.15634,-20.64129 -1.87543,-23.46087 -4.94153,-8.10484 -17.7501,-4.98456 -20.52199,4.99934 -0.57423,2.06827 -1.02842,11.43716 -1.03134,21.27403 l -0.005,17.57813 -7.96875,0 -7.96875,0 0,-30 z m 141.56255,0 0,-30 8.4375,0 8.4375,0 0,3.9254 0,3.92539 2.5781,-2.416 c 3.3715,-3.15943 9.852,-6.37229 12.8533,-6.37229 2.3514,0 2.3811,0.0937 2.3811,7.5 l 0,7.5 -3.5302,0 c -5.1152,0 -9.6646,2.81287 -12.1496,7.51183 -1.9945,3.77177 -2.1327,5.14724 -2.1327,21.22937 l 0,17.1963 -8.4375,0 -8.4375,0 z M 840.44089,272.7185 c 2.61107,-3.73828 5.70349,-7.99479 6.87204,-9.4589 l 2.12464,-2.66204 7.54992,3.13079 c 4.15246,1.72192 7.54371,3.55266 7.53613,4.06828 -0.007,0.51562 -3.05272,3.36328 -6.76695,6.32812 l -6.75317,5.39063 -7.655,0 -7.655,0 z m 138.95708,3.75 c 1.24594,-1.67578 4.332,-5.89664 6.858,-9.37969 5.13403,-7.07911 4.19925,-6.91719 14.51853,-2.51501 3.3616,1.43407 5.9361,2.95681 5.7209,3.38386 -0.2151,0.42706 -3.3674,3.20225 -7.00505,6.16709 l -6.61385,5.39063 -7.87191,0 -7.8719,0 z"
       id="path4261"
       inkscape:connector-curvature="0"
       sodipodi:nodetypes="sssssssssscccccccsssssssssscsssscccscssssscsssssssssccccscccssscssssccssccsssccssscccccccscccsssccccccccccccccccssssssccccccssccccccccccccssscscsccccsscscscccscsscscccc" />
    <path
       style="fill:#1c419b"
       d="m 250.35296,348.34702 c -6.34082,-1.95128 -13.87413,-9.17356 -17.23888,-16.52713 -2.31522,-5.05982 -2.69642,-7.04592 -2.68174,-13.97177 0.0153,-7.21499 0.34502,-8.73957 3.10072,-14.3372 2.18513,-4.43862 4.42263,-7.32213 7.67913,-9.89625 6.03589,-4.7711 9.88046,-5.9326 18.23971,-5.51047 5.96022,0.30098 7.48344,0.76066 11.19919,3.37977 2.36539,1.66727 4.49931,3.03141 4.74204,3.03141 0.24274,0 0.44134,-6.53906 0.44134,-14.53125 l 0,-14.53125 7.96875,0 7.96875,0 0,41.71875 0,41.71875 -7.96875,0 -7.96875,0 0,-3.75 c 0,-2.0625 -0.24935,-3.75 -0.5541,-3.75 -0.30475,0 -2.22788,1.4327 -4.27361,3.18377 -3.60786,3.08819 -9.67966,5.32197 -14.10306,5.18843 -1.18964,-0.0359 -4.13747,-0.67292 -6.55074,-1.41556 z m 18.79173,-15.11156 c 8.74881,-6.36803 8.64861,-23.32488 -0.17584,-29.75895 -3.76529,-2.74534 -11.33884,-2.65337 -15.31954,0.18604 -6.34644,4.52687 -8.70724,15.32659 -5.091,23.28933 1.59368,3.50917 4.92295,6.70584 8.52616,8.18654 2.53051,1.03988 9.53574,-0.0654 12.06022,-1.90296 z m 67.62728,-23.72008 0,-40.3125 9.375,0 9.375,0 0,40.3125 0,40.3125 -9.375,0 -9.375,0 z m 123.51372,39.02854 c -5.13431,-1.91052 -9.56497,-5.61217 -11.58491,-9.67874 -1.50968,-3.03931 -1.81575,-6.17548 -2.06376,-21.14668 l -0.29119,-17.57812 -3.69318,0 -3.69318,0 0,-5.625 0,-5.625 3.75,0 3.75,0 0,-9.375 0,-9.375 8.4375,0 8.4375,0 0,9.375 0,9.375 7.03125,0 7.03125,0 0,5.625 0,5.625 -7.03125,0 -7.03125,0 0,15.7922 c 0,14.1086 0.18277,15.95761 1.71444,17.34375 2.16194,1.95652 7.04406,1.99872 9.96308,0.0861 2.1851,-1.43174 2.29472,-1.36622 4.76468,2.84846 1.39047,2.37265 2.58402,4.97401 2.65234,5.78079 0.18519,2.18705 -8.73368,6.88571 -14.06893,7.4118 -2.70351,0.26658 -5.9875,-0.083 -8.07439,-0.85957 z m 52.26753,-0.0279 c -13.85173,-3.40524 -21.93537,-13.23811 -22.77258,-27.70034 -0.81688,-14.11113 5.06857,-24.48585 17.12662,-30.19034 15.40777,-7.28919 36.16064,0.0989 41.11421,14.63686 0.93482,2.74353 1.563,7.53435 1.563,11.92015 l 0,7.33299 -22.03125,0 c -12.11719,0 -22.03125,0.35948 -22.03125,0.79886 0,1.98032 4.55947,7.32229 7.51868,8.80906 4.96354,2.49376 12.7749,2.16828 18.28589,-0.76193 l 4.52133,-2.40401 4.65294,4.65293 4.65294,4.65294 -5.05026,3.33811 c -5.36234,3.54439 -14.0561,6.27866 -19.54411,6.14681 -1.82526,-0.0439 -5.42804,-0.59829 -8.00616,-1.23209 z m 20.15625,-37.64095 c 0,-5.05946 -6.09355,-9.79719 -12.60091,-9.79719 -6.19115,0 -13.64909,5.36066 -13.64909,9.81077 0,1.22544 1.94964,1.43923 13.125,1.43923 11.2286,0 13.125,-0.20992 13.125,-1.45281 z m 96.88477,38.02915 c -8.76463,-1.85248 -16.74825,-7.7704 -20.7731,-15.3982 -2.29042,-4.34073 -2.51792,-5.70365 -2.51792,-15.08439 0,-9.79708 0.1452,-10.57021 2.90511,-15.46875 3.30124,-5.85934 9.98548,-11.44818 16.24627,-13.58387 5.35268,-1.82592 16.39002,-1.8159 21.69724,0.0197 11.84801,4.09784 17.84415,12.79201 18.51616,26.84776 l 0.39582,8.27891 -22.14592,0 c -24.43224,0 -24.39931,-0.009 -19.6905,5.58674 3.48177,4.13785 6.9825,5.66326 12.99688,5.66326 4.94484,0 9.10315,-1.27053 12.9788,-3.96553 1.50837,-1.04887 2.21099,-0.64434 5.89776,3.3955 l 4.18539,4.58622 -1.98797,2.1161 c -5.07128,5.39813 -19.56976,8.93715 -28.70402,7.00655 z m 18.94178,-39.15447 c -2.7263,-11.21528 -21.79971,-11.38281 -25.68911,-0.22564 l -0.9774,2.80377 13.64661,0 13.64662,0 z m 47.07259,38.79775 c -5.32022,-1.98014 -7.96094,-4.0063 -10.79153,-8.28008 -2.55407,-3.85624 -2.57901,-4.04671 -2.88242,-22.00847 l -0.30605,-18.11857 -3.67832,0 -3.67832,0 0,-5.625 0,-5.625 3.75,0 3.75,0 0,-9.375 0,-9.375 7.96875,0 7.96875,0 0,9.375 0,9.375 7.5,0 7.5,0 0,5.625 0,5.625 -7.5,0 -7.5,0 0,14.00147 c 0,13.53497 0.76707,18.46255 3.10552,19.94947 1.89612,1.20566 7.16299,0.80861 9.4888,-0.71533 2.17477,-1.42496 2.27251,-1.35286 5.27139,3.88865 2.96207,5.17715 3.00082,5.38154 1.26679,6.68151 -6.66787,4.99881 -15.1986,6.84745 -21.23336,4.60135 z m -323.21164,-29.65712 0,-30 7.96875,0 7.96875,0 0,2.8125 c 0,2.77268 1.20271,3.72125 2.35477,1.85717 0.32473,-0.52542 2.65591,-2.00199 5.18041,-3.28125 11.5522,-5.85394 25.26623,-0.80151 30.5848,11.26783 1.38259,3.13752 1.71093,7.31005 2.01022,25.54687 l 0.35773,21.79688 -8.52522,0 -8.52521,0 0,-19.71761 c 0,-22.82156 -0.57293,-25.37981 -6.21157,-27.73578 -6.58038,-2.74946 -14.34546,1.02625 -16.25578,7.90428 -0.52783,1.90044 -0.96205,11.57645 -0.96492,21.50223 l -0.005,18.04688 -7.96875,0 -7.96875,0 0,-30 z m 190.3125,0 0,-30 7.96875,0 7.96875,0 0,3.70261 0,3.70261 5.46356,-3.77017 c 3.35571,-2.31562 6.97261,-3.97257 9.375,-4.2948 l 3.91144,-0.52463 0,7.50416 0,7.50416 -4.63421,0.4453 c -5.85856,0.56293 -8.85174,2.52532 -11.50254,7.54134 -1.90416,3.6032 -2.13047,5.55409 -2.44522,21.08004 l -0.34686,17.10938 -7.87933,0 -7.87934,0 z m -256.82202,-25.4469 c 1.06773,-2.70885 2.15283,-5.26741 2.41134,-5.68569 0.25852,-0.41828 -0.40114,-1.86802 -1.4659,-3.22164 -4.5797,-5.82215 0.0594,-14.39577 7.78934,-14.39577 1.27511,0 3.61638,1.09219 5.20281,2.42708 2.40417,2.02298 2.88443,3.10385 2.88443,6.49166 0,3.34668 -0.86932,5.36036 -4.92188,11.40104 -4.89194,7.29184 -4.94899,7.33821 -9.38167,7.62248 l -4.4598,0.28601 z M 510.79829,278.3435 c 1.66636,-2.7917 12.72935,-17.57812 13.15171,-17.57812 0.25604,0 4.00129,1.51895 8.32276,3.37543 l 7.85724,3.37543 -7.2259,5.97137 -7.22588,5.97137 -7.78971,0.0282 c -5.98534,0.0217 -7.62767,-0.24325 -7.09022,-1.14368 z m 103.1108,0 c 0.37691,-0.64453 3.00693,-4.4414 5.8445,-8.4375 l 5.15921,-7.26562 10.42159,0 10.42158,0 5.81305,8.20312 5.81305,8.20313 -6.24139,0.28074 -6.2414,0.28075 -4.33023,-4.26512 c -2.38163,-2.34581 -4.75525,-4.26512 -5.27471,-4.26512 -0.51946,0 -2.80765,1.89844 -5.08487,4.21875 -4.10879,4.18656 -4.18941,4.21875 -10.56302,4.21875 -4.87859,0 -6.25789,-0.28173 -5.73736,-1.17188 z m -59.63712,-52.73437 0,-37.96875 6.09375,0 6.09375,0 0,4.72012 0,4.72012 2.95811,-3.3691 c 4.37617,-4.98418 9.0168,-7.0124 15.98891,-6.98805 17.15083,0.0599 29.26212,15.85528 26.029,33.94668 -2.43617,13.63199 -12.92153,23.15166 -25.55301,23.19964 -6.21141,0.0236 -10.5287,-1.53004 -15.7557,-5.66989 l -3.66731,-2.90458 0,14.14128 0,14.14128 -6.09375,0 -6.09375,0 z m 36.46989,6.61039 c 12.02902,-6.22045 12.94414,-25.37021 1.5834,-33.13437 -5.79102,-3.9577 -14.05431,-3.58734 -19.73962,0.88472 -10.38923,8.17217 -7.81503,28.42197 4.18633,32.93158 2.82183,1.06032 11.41159,0.64102 13.96989,-0.68193 z m -174.78294,10.35835 c -3.70396,-1.61363 -8.10658,-6.32604 -9.50059,-10.16909 -0.68181,-1.87965 -1.13358,-9.43384 -1.17754,-19.69028 l -0.0713,-16.64062 -3.75,0 -3.75,0 0,-4.21875 0,-4.21875 3.75,0 3.75,0 0,-8.90625 0,-8.90625 5.625,0 5.625,0 0,8.90625 0,8.90625 7.5,0 7.5,0 0,4.21875 0,4.21875 -7.5,0 -7.5,0 0,16.47836 0,16.47837 2.85599,2.856 c 2.44174,2.44173 3.34249,2.77704 6.21003,2.3117 1.84472,-0.29936 4.09724,-1.21687 5.00559,-2.03893 1.53947,-1.3932 1.81016,-1.2109 3.98802,2.68572 l 2.33646,4.18038 -4.46554,2.43045 c -5.02758,2.73636 -11.67759,3.1888 -16.4311,1.11794 z m 88.34681,0.0148 c -12.32713,-4.58591 -18.47126,-13.64911 -18.47126,-27.2469 0,-12.6554 4.76842,-20.63259 15.48767,-25.90965 5.62813,-2.77072 6.55631,-2.9431 13.80038,-2.56288 16.76062,0.87971 26.02445,10.72433 26.02445,27.65605 l 0,5.92359 -22.03125,0 c -20.81989,0 -22.03125,0.0955 -22.03125,1.73636 0,2.87455 3.98026,7.81986 7.96875,9.90084 5.89452,3.07545 15.51831,2.754 21.42097,-0.7155 l 4.54595,-2.67205 3.21535,3.11644 3.21537,3.11645 -2.13632,1.69834 c -5.88631,4.67952 -11.38526,6.64629 -19.48007,6.96732 -5.2785,0.20933 -9.1706,-0.13108 -11.52874,-1.00837 z m 25.22885,-34.56168 c -1.32805,-6.7806 -6.77624,-11.21726 -14.39064,-11.71881 -4.28591,-0.2823 -6.27404,0.0929 -9.6144,1.81427 -4.59345,2.36718 -8.44507,7.26834 -8.44507,10.74632 l 0,2.20511 16.52344,0 16.52343,0 -0.59676,-3.04688 z m 153.82926,34.50569 c -12.37596,-4.41441 -19.11509,-15.27073 -18.2692,-29.43053 0.48906,-8.1866 2.62599,-13.22693 7.80233,-18.40328 5.16881,-5.16881 10.21903,-7.3134 18.36872,-7.80033 8.82825,-0.52746 14.84373,1.26464 20.50193,6.10785 5.83867,4.99768 8.42135,11.17725 8.43269,20.17685 l 0.009,7.26563 -22.13289,0 -22.13288,0 0.61276,2.4414 c 1.06042,4.22508 3.34318,6.76722 8.29059,9.23261 7.25555,3.61559 16.51883,2.87438 22.74367,-1.81987 l 2.85,-2.14924 3.03922,3.62004 3.03922,3.62006 -3.93327,2.84924 c -2.16329,1.56708 -6.05017,3.4779 -8.6375,4.24625 -5.79933,1.72222 -15.8186,1.7433 -20.58456,0.0433 z m 25.2924,-34.83922 c -0.8051,-4.96121 -3.06639,-7.80676 -7.90459,-9.94693 -8.42857,-3.72836 -20.21632,-0.0482 -23.27223,7.26562 -2.61146,6.2501 -3.08373,6.06172 15.19646,6.06172 l 16.52892,0 z m 108.37315,34.69651 c -5.75158,-2.11545 -12.7393,-8.79537 -15.211,-14.54096 -3.01731,-7.01394 -3.46393,-13.69106 -1.42134,-21.24962 1.45477,-5.38335 2.46948,-7.07191 6.93024,-11.53249 6.13035,-6.13011 11.57477,-8.36803 20.35777,-8.36803 11.10517,0 20.91947,5.80759 24.88534,14.72586 0.96477,2.16953 2.01577,7.3375 2.33555,11.48437 l 0.58142,7.53977 -22.63894,0 c -12.45143,0 -22.63896,0.22448 -22.63896,0.49886 0,1.99011 3.06495,7.04688 5.52664,9.11826 6.88221,5.791 19.45641,5.88196 26.22131,0.18967 l 2.74368,-2.30866 2.96745,3.37975 c 2.83068,3.22396 2.89315,3.46183 1.35541,5.16101 -0.88661,0.97971 -3.93676,2.91866 -6.7781,4.3088 -6.45704,3.15914 -18.83325,3.94118 -25.21647,1.59341 z m 25.98907,-33.89423 c -0.008,-6.42529 -7.43063,-12.35748 -15.51555,-12.40128 -6.04075,-0.0327 -13.03331,3.95863 -15.36172,8.76849 -1.06244,2.19472 -1.93172,4.49002 -1.93172,5.10066 0,0.81305 4.39185,1.11026 16.40625,1.11026 l 16.40625,0 -0.004,-2.57813 z m 35.54159,33.20928 c -5.25164,-2.77254 -9.01419,-8.14347 -10.21894,-14.58723 -0.51927,-2.77741 -0.94414,-12.79694 -0.94414,-22.26563 l 0,-17.21579 6.09375,0 6.09375,0 0,18.37394 c 0,20.49351 0.69937,23.61017 5.90173,26.30041 4.08525,2.11257 12.53328,1.34518 16.53128,-1.50164 5.08757,-3.62269 5.69199,-6.36217 5.69199,-25.79885 l 0,-17.37386 5.625,0 5.625,0 0,27.65625 0,27.65625 -5.625,0 -5.625,0 0,-4.9011 0,-4.90111 -2.81137,3.41067 c -6.03761,7.32468 -17.84376,9.63215 -26.33805,5.14769 z m -612.10058,-35.31864 0,-36.5625 25.78125,0 25.78125,0 0,5.625 0,5.625 -19.6875,0 -19.6875,0 0,9.84375 0,9.84375 17.8125,0 17.8125,0 0,5.625 0,5.625 -17.8125,0 -17.8125,0 0,9.84375 0,9.84375 20.625,0 20.625,0 0,5.625 0,5.625 -26.71875,0 -26.71875,0 z m 68.4375,8.90625 0,-27.65625 5.625,0 5.625,0 0,4.72012 0,4.72012 2.8537,-3.25018 c 4.60831,-5.24858 10.09989,-7.40181 17.77189,-6.9683 8.1528,0.46067 13.25783,3.67835 16.82318,10.60357 2.31537,4.49728 2.40583,5.33063 2.72116,25.06954 l 0.32619,20.41763 -6.18556,0 -6.18556,0 0,-18.37394 c 0,-20.33837 -0.7141,-23.61779 -5.70487,-26.19861 -4.15154,-2.14684 -12.17169,-1.76321 -15.95337,0.76311 -5.82721,3.89283 -6.46367,6.47509 -6.46531,26.23131 l -10e-4,17.57813 -5.625,0 -5.625,0 0,-27.65625 z m 111.5625,0 0,-27.65625 6.09375,0 6.09375,0 0,5.15895 0,5.15895 3.45168,-3.82059 c 3.67996,-4.07328 9.30834,-7.43481 12.44847,-7.43481 1.71232,0 1.91235,0.58838 1.91235,5.625 0,5.3349 -0.11773,5.625 -2.28272,5.625 -5.67477,0 -10.95998,3.78157 -13.75787,9.84375 -1.46128,3.16618 -1.73394,6.19475 -1.75132,19.45313 l -0.0206,15.70312 -6.09375,0 -6.09375,0 0,-27.65625 z m 180,0 0,-27.65625 5.625,0 5.625,0 0,5.325 0,5.325 3.28375,-3.83633 c 3.23718,-3.78192 9.86854,-7.75117 12.94974,-7.75117 1.30108,0 1.57901,0.96899 1.57901,5.50518 l 0,5.50518 -3.58978,0.57403 c -4.91348,0.78569 -9.45771,4.08748 -11.79742,8.57186 -1.72077,3.2981 -1.99207,5.69882 -2.25136,19.92188 l -0.2948,16.17187 -5.56457,0 -5.56457,0 z m 107.8125,0 0,-27.65625 5.625,0 5.625,0 0,4.9011 0,4.90111 2.81137,-3.41068 c 3.90338,-4.73548 9.65904,-7.32903 16.26473,-7.32903 8.88796,0 14.77699,3.3875 18.74274,10.78125 1.85096,3.4509 2.03684,5.41373 2.33049,24.60937 l 0.31911,20.85938 -5.61819,0 -5.61819,0 -0.31916,-18.51563 c -0.28702,-16.65179 -0.51306,-18.84571 -2.24547,-21.79477 -2.44659,-4.16481 -5.30543,-5.59592 -11.21331,-5.61328 -6.41409,-0.0189 -10.72465,2.41016 -13.34475,7.51982 -1.96064,3.82361 -2.10937,5.32251 -2.10937,21.25876 l 0,17.1451 -5.625,0 -5.625,0 z m 202.5,0 0,-27.65625 6.09375,0 6.09375,0 0,5.15895 0,5.15895 3.45169,-3.82059 c 3.67997,-4.07328 9.30834,-7.43481 12.4485,-7.43481 1.71225,0 1.91231,0.58838 1.91231,5.625 0,5.3349 -0.11775,5.625 -2.28272,5.625 -5.67478,0 -10.96003,3.78157 -13.7579,9.84375 -1.46129,3.16618 -1.73391,6.19475 -1.75126,19.45313 l -0.0206,15.70312 -6.09375,0 -6.09375,0 0,-27.65625 z"
       id="path4259"
       inkscape:connector-curvature="0"
       sodipodi:nodetypes="ssssssssscccccccssscscsssscccccccccccsscccccccccccccccccccssssssccssssscsssscccscssssssssssssscscssscsssscccsssscccccccccccccccccccssssssccccssssscccsssccccccccccccsscccsssccccscsssssscscsscccsccscccccccsssscccccccsssssccccccssssscsscccccccccccccccccccccsssscscccsssscsssscccsscccsssccccccssssccccssscccssccsssscsssssssscsssscsssscsssscccssscccsssscccccccccsscccccccccccccccccccccccccccccccsssscccsssccccccccccccsssssscccccccccccssscsssccccccccccsssscccsssssccccccccccssssssccccc" />
    <circle
       style="opacity:1;fill:none;fill-opacity:1;stroke:#eb1c24;stroke-width:10;stroke-linecap:square;stroke-linejoin:miter;stroke-miterlimit:4;stroke-dasharray:none;stroke-opacity:1"
       id="path4303"
       cx="154.97125"
       cy="-247.56113"
       r="20.5"
       transform="scale(1,-1)" />
    <circle
       transform="scale(1,-1)"
       r="20.5"
       cy="-264.34924"
       cx="78.070778"
       id="circle4325"
       style="opacity:1;fill:none;fill-opacity:1;stroke:#1c419b;stroke-width:10;stroke-linecap:square;stroke-linejoin:miter;stroke-miterlimit:4;stroke-dasharray:none;stroke-opacity:1" />
    <path
       style="fill:none;fill-rule:evenodd;stroke:#1c419b;stroke-width:10;stroke-linecap:round;stroke-linejoin:miter;stroke-miterlimit:4;stroke-dasharray:none;stroke-opacity:1"
       d="m 78.883421,203.31593 0,-24.61098 75.598279,-44.16621 75.17966,43.405 0,86.86808 -75.78091,44.15211 -57.774472,-33.75609"
       id="path4327"
       inkscape:connector-curvature="0"
       sodipodi:nodetypes="ccccccc" />
    <path
       style="fill:none;fill-rule:evenodd;stroke:#eb1c24;stroke-width:10;stroke-linecap:round;stroke-linejoin:miter;stroke-miterlimit:4;stroke-dasharray:none;stroke-opacity:1"
       d="m 137.01281,236.10953 -57.935709,-33.4492 -75.8102511,43.76907 0,87.70116 74.5629801,43.04895 76.02524,-43.89319 0,-25.15029"
       id="path4329"
       inkscape:connector-curvature="0" />
    <path
       sodipodi:nodetypes="sssssssscsssscsssccsssscc"
       inkscape:connector-curvature="0"
       id="path4409"
       d="m 1004.9339,241.6281 c -5.7516,-2.11545 -12.73929,-8.79537 -15.21099,-14.54096 -3.01731,-7.01394 -3.46393,-13.69106 -1.42134,-21.24962 1.45477,-5.38335 2.46948,-7.07191 6.93024,-11.53249 6.13039,-6.13011 11.57479,-8.36803 20.35779,-8.36803 11.1051,0 20.9194,5.80759 24.8853,14.72586 0.9648,2.16953 2.0158,7.3375 2.3356,11.48437 l 0.5814,7.53977 -22.639,0 c -12.4514,0 -22.6389,0.22448 -22.6389,0.49886 0,1.99011 3.0649,7.04688 5.5266,9.11826 6.8822,5.791 19.4564,5.88196 26.2213,0.18967 l 2.7437,-2.30866 2.9675,3.37975 c 2.8307,3.22396 2.8931,3.46183 1.3554,5.16101 -0.8866,0.97971 -3.9368,2.91866 -6.7781,4.3088 -6.4571,3.15914 -18.8333,3.94118 -25.2165,1.59341 z m 25.9891,-33.89423 c -0.01,-6.42529 -7.4307,-12.35748 -15.5156,-12.40128 -6.0407,-0.0327 -13.0333,3.95863 -15.3617,8.76849 -1.0624,2.19472 -1.9317,4.49002 -1.9317,5.10066 0,0.81305 4.3918,1.11026 16.4062,1.11026 l 16.4063,0 0,-2.57813 z"
       style="fill:#1c419b" />
    <circle
       style="opacity:1;fill:#1c419b;fill-opacity:1;stroke:none;stroke-width:10;stroke-linecap:round;stroke-linejoin:miter;stroke-miterlimit:4;stroke-dasharray:none;stroke-opacity:1"
       id="path4411"
       cx="973.26642"
       cy="237.44666"
       r="6" />
    <path
       sodipodi:nodetypes="cc"
       inkscape:connector-curvature="0"
       id="path4413"
       d="m 78.883421,203.31593 0,-24.61098"
       style="fill:none;fill-rule:evenodd;stroke:#1c419b;stroke-width:10;stroke-linecap:round;stroke-linejoin:miter;stroke-miterlimit:4;stroke-dasharray:none;stroke-opacity:1" />
  </g>
  <g
     id="g4217"
     transform="translate(-13.430323,-68.64432)" />
  <g
     id="g4181"
     transform="translate(120.94623,-548.18893)" />
</svg>
