<?xml version="1.0" encoding="UTF-8"?>
<svg width="1162px" height="255px" viewBox="0 0 1162 255" version="1.1" xmlns="http://www.w3.org/2000/svg" xmlns:xlink="http://www.w3.org/1999/xlink">
    <!-- Generator: Sketch 53.2 (72643) - https://sketchapp.com -->
    <title>LogoEIG</title>
    <desc>Created with Sketch.</desc>
    <g id="Page-1" stroke="none" stroke-width="1" fill="none" fill-rule="evenodd">
        <g id="LogoEIG" transform="translate(5.000000, 5.000000)">
            <path d="M759.4009,214.79396 C751.55117,213.08872 745.42472,209.69601 739.44669,203.7437 C716.33636,180.73275 729.93698,140.40874 762.51944,135.33612 C771.21712,133.98201 780.24374,135.5894 788.76134,140.00906 C797.8047,144.70152 797.98805,145.19819 793.25181,152.17262 C791.09538,155.3481 789.15696,157.94622 788.94422,157.94622 C788.73147,157.94622 786.72281,156.70807 784.48053,155.19478 C774.32321,148.33969 761.12414,149.19312 752.89671,157.23695 C740.83962,169.025 744.15916,191.65653 758.93215,198.38466 C763.67512,200.54478 773.4412,200.66635 779.39014,198.63934 L783.7759,197.14497 L783.7759,185.98309 L783.7759,174.82122 L792.2134,174.82122 L800.6509,174.82122 L800.6509,188.8362 L800.6509,202.85119 L797.60402,205.74029 C793.23725,209.88094 784.28335,213.9913 777.2134,215.10078 C769.65468,216.28695 765.98241,216.22369 759.4009,214.79396 Z M834.61667,214.61772 C825.0232,212.03493 818.77605,207.03377 814.7181,198.68792 C811.48091,192.03009 811.38321,178.37391 814.52387,171.53997 C817.46459,165.14113 823.23011,159.52495 829.95799,156.50566 C835.05066,154.2202 836.38282,154.02086 844.13058,154.38487 C856.17293,154.95064 863.53931,159.03645 868.84753,168.09424 C871.02739,171.8139 871.43396,173.70378 871.75067,181.58918 L872.11897,190.75872 L849.97869,190.75872 C837.80153,190.75872 827.8384,191.1182 827.8384,191.55758 C827.8384,193.45668 832.32317,198.67831 835.32378,200.27284 C840.15071,202.83787 847.94684,202.58398 853.69361,199.6746 L858.30408,197.34048 L862.88714,201.92353 L867.47018,206.50657 L862.41992,209.84468 C857.07748,213.37592 848.40254,216.11227 842.87581,216.00952 C841.05055,215.97562 837.33393,215.34928 834.61667,214.61772 Z M855.25279,176.46184 C853.18978,168.32895 843.76437,164.89761 835.32037,169.20542 C831.9882,170.90537 828.7759,175.01947 828.7759,177.58716 C828.7759,178.2287 833.47691,178.57122 842.28188,178.57122 L855.78786,178.57122 L855.25279,176.46184 Z M976.03971,214.64014 C969.87068,212.91098 966.28146,210.75946 961.71284,206.05213 C956.05943,200.2272 953.99271,194.52586 953.96009,184.66497 C953.93569,177.30329 954.2644,175.55083 956.53821,170.92071 C959.40021,165.09277 964.32434,160.12869 970.53049,156.81495 C973.99437,154.96548 975.93302,154.66497 984.4009,154.66497 C993.26,154.66497 994.7136,154.91449 998.93215,157.15939 C1008.74355,162.38041 1012.93985,169.45452 1013.99685,182.55559 L1014.65875,190.75872 L992.0786,190.75872 L969.4984,190.75872 L970.48943,193.60152 C973.3939,201.93338 987.93396,204.85813 996.74045,198.88195 L999.89345,196.74226 L1004.36055,201.65179 L1008.82765,206.56134 L1005.57595,209.04155 C997.96925,214.84354 985.31946,217.24128 976.03971,214.64014 L976.03971,214.64014 Z M997.52595,178.07236 C997.52595,177.79799 996.91855,176.11972 996.1761,174.34289 C993.4145,167.73363 984.07456,165.27706 976.94412,169.28459 C973.64721,171.13756 970.3384,175.27468 970.3384,177.54399 C970.3384,178.2414 974.70302,178.57122 983.93215,178.57122 C991.40871,178.57122 997.52595,178.34674 997.52595,178.07236 Z M1084.65605,214.79156 C1076.46475,212.58268 1071.38875,207.51741 1069.67005,199.83701 C1067.47725,190.03888 1072.30665,181.97601 1082.11235,179.06404 C1085.14815,178.16249 1090.72155,177.63372 1097.18825,177.63372 L1107.44785,177.63372 L1106.84745,174.63191 C1106.04975,170.64312 1103.10505,167.66053 1099.36575,167.05371 C1095.37965,166.40686 1088.12985,167.79911 1083.29385,170.14017 C1081.17095,171.16787 1079.20495,172.00872 1078.92525,172.00872 C1078.64535,172.00872 1076.90975,169.73938 1075.06805,166.96575 L1071.71975,161.92277 L1076.10725,159.54856 C1083.74615,155.4149 1090.59635,153.93976 1100.08325,154.38553 C1109.67545,154.83625 1114.65035,156.7785 1118.77825,161.68422 C1122.60905,166.23694 1123.14015,170.08564 1123.14565,193.33685 L1123.15565,215.13372 L1115.65565,215.13372 L1108.15565,215.13372 L1108.15565,211.31067 L1108.15565,207.48761 L1104.35085,210.74444 C1100.81325,213.77244 1094.59985,216.15617 1090.63115,216.00795 C1089.69935,215.97315 1087.01275,215.42577 1084.66075,214.79156 L1084.65605,214.79156 Z M1102.41635,200.47995 C1104.79015,198.8173 1107.21345,193.87596 1107.21345,190.69834 C1107.21345,188.78105 1106.86775,188.71548 1098.40375,189.0276 C1091.36075,189.28732 1089.19875,189.7106 1087.62255,191.1384 C1085.12095,193.40442 1085.07505,197.6828 1087.52555,200.13372 C1089.95505,202.56321 1099.13685,202.77671 1102.41595,200.47995 L1102.41635,200.47995 Z M1138.15095,173.41497 L1138.15095,130.75872 L1147.52595,130.75872 L1156.90095,130.75872 L1156.90095,173.41497 L1156.90095,216.07122 L1147.52595,216.07122 L1138.15095,216.07122 L1138.15095,173.41497 Z M885.0259,185.13372 L885.0259,155.13372 L892.99465,155.13372 L900.9634,155.13372 L900.9634,157.94622 C900.9634,159.49309 901.12322,160.75872 901.31857,160.75872 C901.51391,160.75872 904.15063,159.25284 907.17795,157.41233 C912.41054,154.23107 913.03633,154.08086 919.85958,154.3684 C926.14415,154.63324 927.53676,155.03287 931.05434,157.581 C933.29431,159.20361 936.34043,162.7279 937.93943,165.5468 L940.80715,170.60247 L941.11587,192.86809 L941.42459,215.13372 L932.91274,215.13372 L924.4009,215.13372 L924.3969,194.74309 C924.3939,176.01728 924.24056,174.1018 922.52147,171.28222 C917.57994,163.17738 904.77137,166.29766 901.99948,176.28156 C901.42525,178.34983 900.97106,187.71872 900.96814,197.55559 L900.96314,215.13372 L892.99439,215.13372 L885.02564,215.13372 L885.02564,185.13372 L885.0259,185.13372 Z M1026.58845,185.13372 L1026.58845,155.13372 L1035.02595,155.13372 L1043.46345,155.13372 L1043.46345,159.05912 L1043.46345,162.98451 L1046.04155,160.56851 C1049.41305,157.40908 1055.89355,154.19622 1058.89485,154.19622 C1061.24625,154.19622 1061.27595,154.28992 1061.27595,161.69622 L1061.27595,169.19622 L1057.74575,169.19622 C1052.63055,169.19622 1048.08115,172.00909 1045.59615,176.70805 C1043.60165,180.47982 1043.46345,181.85529 1043.46345,197.93742 L1043.46345,215.13372 L1035.02595,215.13372 L1026.58845,215.13372 L1026.58845,185.13372 Z M837.17404,138.96184 C839.78511,135.22356 842.87753,130.96705 844.04608,129.50294 L846.17072,126.8409 L853.72064,129.97169 C857.8731,131.69361 861.26435,133.52435 861.25677,134.03997 C861.24977,134.55559 858.20405,137.40325 854.48982,140.36809 L847.73665,145.75872 L840.08165,145.75872 L832.42665,145.75872 L837.17404,138.96184 Z M976.13112,142.71184 C977.37706,141.03606 980.46312,136.8152 982.98912,133.33215 C988.12315,126.25304 987.18837,126.41496 997.50765,130.81714 C1000.86925,132.25121 1003.44375,133.77395 1003.22855,134.201 C1003.01345,134.62806 999.86115,137.40325 996.2235,140.36809 L989.60965,145.75872 L981.73774,145.75872 L973.86584,145.75872 L976.13112,142.71184 Z" id="path4261" fill="#EB1C24" fill-rule="nonzero"></path>
            <path d="M247.08611,214.59036 C240.74529,212.63908 233.21198,205.4168 229.84723,198.06323 C227.53201,193.00341 227.15081,191.01731 227.16549,184.09146 C227.18079,176.87647 227.51051,175.35189 230.26621,169.75426 C232.45134,165.31564 234.68884,162.43213 237.94534,159.85801 C243.98123,155.08691 247.8258,153.92541 256.18505,154.34754 C262.14527,154.64852 263.66849,155.1082 267.38424,157.72731 C269.74963,159.39458 271.88355,160.75872 272.12628,160.75872 C272.36902,160.75872 272.56762,154.21966 272.56762,146.22747 L272.56762,131.69622 L280.53637,131.69622 L288.50512,131.69622 L288.50512,173.41497 L288.50512,215.13372 L280.53637,215.13372 L272.56762,215.13372 L272.56762,211.38372 C272.56762,209.32122 272.31827,207.63372 272.01352,207.63372 C271.70877,207.63372 269.78564,209.06642 267.73991,210.81749 C264.13205,213.90568 258.06025,216.13946 253.63685,216.00592 C252.44721,215.97002 249.49938,215.333 247.08611,214.59036 L247.08611,214.59036 Z M265.87784,199.4788 C274.62665,193.11077 274.52645,176.15392 265.702,169.71985 C261.93671,166.97451 254.36316,167.06648 250.38246,169.90589 C244.03602,174.43276 241.67522,185.23248 245.29146,193.19522 C246.88514,196.70439 250.21441,199.90106 253.81762,201.38176 C256.34813,202.42164 263.35336,201.31636 265.87784,199.4788 L265.87784,199.4788 Z M333.50512,175.75872 L333.50512,135.44622 L342.88012,135.44622 L352.25512,135.44622 L352.25512,175.75872 L352.25512,216.07122 L342.88012,216.07122 L333.50512,216.07122 L333.50512,175.75872 Z M457.01884,214.78726 C451.88453,212.87674 447.45387,209.17509 445.43393,205.10852 C443.92425,202.06921 443.61818,198.93304 443.37017,183.96184 L443.07898,166.38372 L439.3858,166.38372 L435.69262,166.38372 L435.69262,160.75872 L435.69262,155.13372 L439.44262,155.13372 L443.19262,155.13372 L443.19262,145.75872 L443.19262,136.38372 L451.63012,136.38372 L460.06762,136.38372 L460.06762,145.75872 L460.06762,155.13372 L467.09887,155.13372 L474.13012,155.13372 L474.13012,160.75872 L474.13012,166.38372 L467.09887,166.38372 L460.06762,166.38372 L460.06762,182.17592 C460.06762,196.28452 460.25039,198.13353 461.78206,199.51967 C463.944,201.47619 468.82612,201.51839 471.74514,199.60577 C473.93024,198.17403 474.03986,198.23955 476.50982,202.45423 C477.90029,204.82688 479.09384,207.42824 479.16216,208.23502 C479.34735,210.42207 470.42848,215.12073 465.09323,215.64682 C462.38972,215.9134 459.10573,215.56382 457.01884,214.78725 L457.01884,214.78726 Z M509.28637,214.75936 C495.43464,211.35412 487.351,201.52125 486.51379,187.05902 C485.69691,172.94789 491.58236,162.57317 503.64041,156.86868 C519.04818,149.57949 539.80105,156.96758 544.75462,171.50554 C545.68944,174.24907 546.31762,179.03989 546.31762,183.42569 L546.31762,190.75868 L524.28637,190.75868 C512.16918,190.75868 502.25512,191.11816 502.25512,191.55754 C502.25512,193.53786 506.81459,198.87983 509.7738,200.3666 C514.73734,202.86036 522.5487,202.53488 528.05969,199.60467 L532.58102,197.20066 L537.23396,201.85359 L541.8869,206.50653 L536.83664,209.84464 C531.4743,213.38903 522.78054,216.1233 517.29253,215.99145 C515.46727,215.94755 511.86449,215.39316 509.28637,214.75936 L509.28637,214.75936 Z M529.44262,177.11841 C529.44262,172.05895 523.34907,167.32122 516.84171,167.32122 C510.65056,167.32122 503.19262,172.68188 503.19262,177.13199 C503.19262,178.35743 505.14226,178.57122 516.31762,178.57122 C527.54622,178.57122 529.44262,178.3613 529.44262,177.11841 Z M626.32739,215.14756 C617.56276,213.29508 609.57914,207.37716 605.55429,199.74936 C603.26387,195.40863 603.03637,194.04571 603.03637,184.66497 C603.03637,174.86789 603.18157,174.09476 605.94148,169.19622 C609.24272,163.33688 615.92696,157.74804 622.18775,155.61235 C627.54043,153.78643 638.57777,153.79645 643.88499,155.63205 C655.733,159.72989 661.72914,168.42406 662.40115,182.47981 L662.79697,190.75872 L640.65105,190.75872 C616.21881,190.75872 616.25174,190.74972 620.96055,196.34546 C624.44232,200.48331 627.94305,202.00872 633.95743,202.00872 C638.90227,202.00872 643.06058,200.73819 646.93623,198.04319 C648.4446,196.99432 649.14722,197.39885 652.83399,201.43869 L657.01938,206.02491 L655.03141,208.14101 C649.96013,213.53914 635.46165,217.07816 626.32739,215.14756 L626.32739,215.14756 Z M645.26917,175.99309 C642.54287,164.77781 623.46946,164.61028 619.58006,175.76745 L618.60266,178.57122 L632.24927,178.57122 L645.89589,178.57122 L645.26917,175.99309 Z M692.34176,214.79084 C687.02154,212.8107 684.38082,210.78454 681.55023,206.51076 C678.99616,202.65452 678.97122,202.46405 678.66781,184.50229 L678.36176,166.38372 L674.68344,166.38372 L671.00512,166.38372 L671.00512,160.75872 L671.00512,155.13372 L674.75512,155.13372 L678.50512,155.13372 L678.50512,145.75872 L678.50512,136.38372 L686.47387,136.38372 L694.44262,136.38372 L694.44262,145.75872 L694.44262,155.13372 L701.94262,155.13372 L709.44262,155.13372 L709.44262,160.75872 L709.44262,166.38372 L701.94262,166.38372 L694.44262,166.38372 L694.44262,180.38519 C694.44262,193.92016 695.20969,198.84774 697.54814,200.33466 C699.44426,201.54032 704.71113,201.14327 707.03694,199.61933 C709.21171,198.19437 709.30945,198.26647 712.30833,203.50798 C715.2704,208.68513 715.30915,208.88952 713.57512,210.18949 C706.90725,215.1883 698.37652,217.03694 692.34176,214.79084 L692.34176,214.79084 Z M369.13012,185.13372 L369.13012,155.13372 L377.09887,155.13372 L385.06762,155.13372 L385.06762,157.94622 C385.06762,160.7189 386.27033,161.66747 387.42239,159.80339 C387.74712,159.27797 390.0783,157.8014 392.6028,156.52214 C404.155,150.6682 417.86903,155.72063 423.1876,167.78997 C424.57019,170.92749 424.89853,175.10002 425.19782,193.33684 L425.55555,215.13372 L417.03033,215.13372 L408.50512,215.13372 L408.50512,195.41611 C408.50512,172.59455 407.93219,170.0363 402.29355,167.68033 C395.71317,164.93087 387.94809,168.70658 386.03777,175.58461 C385.50994,177.48505 385.07572,187.16106 385.07285,197.08684 L385.06785,215.13372 L377.0991,215.13372 L369.13012,215.13372 L369.13035,185.13372 L369.13012,185.13372 Z M559.44262,185.13372 L559.44262,155.13372 L567.41137,155.13372 L575.38012,155.13372 L575.38012,158.83633 L575.38012,162.53894 L580.84368,158.76877 C584.19939,156.45315 587.81629,154.7962 590.21868,154.47397 L594.13012,153.94934 L594.13012,161.4535 L594.13012,168.95766 L589.49591,169.40296 C583.63735,169.96589 580.64417,171.92828 577.99337,176.9443 C576.08921,180.5475 575.8629,182.49839 575.54815,198.02434 L575.20129,215.13372 L567.32196,215.13372 L559.44262,215.13372 L559.44262,185.13372 Z M302.6206,159.68682 C303.68833,156.97797 304.77343,154.41941 305.03194,154.00113 C305.29046,153.58285 304.6308,152.13311 303.56604,150.77949 C298.98634,144.95734 303.62544,136.38372 311.35538,136.38372 C312.63049,136.38372 314.97176,137.47591 316.55819,138.8108 C318.96236,140.83378 319.44262,141.91465 319.44262,145.30246 C319.44262,148.64914 318.5733,150.66282 314.52074,156.7035 C309.6288,163.99534 309.57175,164.04171 305.13907,164.32598 L300.67927,164.61199 L302.6206,159.68682 Z M507.53144,144.58684 C509.1978,141.79514 520.26079,127.00872 520.68315,127.00872 C520.93919,127.00872 524.68444,128.52767 529.00591,130.38415 L536.86315,133.75958 L529.63725,139.73095 L522.41137,145.70232 L514.62166,145.73052 C508.63632,145.75222 506.99399,145.48727 507.53144,144.58684 L507.53144,144.58684 Z M610.64224,144.58684 C611.01915,143.94231 613.64917,140.14544 616.48674,136.14934 L621.64595,128.88372 L632.06754,128.88372 L642.48912,128.88372 L648.30217,137.08684 L654.11522,145.28997 L647.87383,145.57071 L641.63243,145.85146 L637.3022,141.58634 C634.92057,139.24053 632.54695,137.32122 632.02749,137.32122 C631.50803,137.32122 629.21984,139.21966 626.94262,141.53997 C622.83383,145.72653 622.75321,145.75872 616.3796,145.75872 C611.50101,145.75872 610.12171,145.47699 610.64224,144.58684 L610.64224,144.58684 Z M551.00512,91.85247 L551.00512,53.88372 L557.09887,53.88372 L563.19262,53.88372 L563.19262,58.60384 L563.19262,63.32396 L566.15073,59.95486 C570.5269,54.97068 575.16753,52.94246 582.13964,52.96681 C599.29047,53.02671 611.40176,68.82209 608.16864,86.91349 C605.73247,100.54548 595.24711,110.06515 582.61563,110.11313 C576.40422,110.13673 572.08693,108.58309 566.85993,104.44324 L563.19262,101.53866 L563.19262,115.67994 L563.19262,129.82122 L557.09887,129.82122 L551.00512,129.82122 L551.00512,91.85247 Z M587.47501,98.46286 C599.50403,92.24241 600.41915,73.09265 589.05841,65.32849 C583.26739,61.37079 575.0041,61.74115 569.31879,66.21321 C558.92956,74.38538 561.50376,94.63518 573.50512,99.14479 C576.32695,100.20511 584.91671,99.78581 587.47501,98.46286 Z M412.69207,108.82121 C408.98811,107.20758 404.58549,102.49517 403.19148,98.65212 C402.50967,96.77247 402.0579,89.21828 402.01394,78.96184 L401.94264,62.32122 L398.19264,62.32122 L394.44264,62.32122 L394.44264,58.10247 L394.44264,53.88372 L398.19264,53.88372 L401.94264,53.88372 L401.94264,44.97747 L401.94264,36.07122 L407.56764,36.07122 L413.19264,36.07122 L413.19264,44.97747 L413.19264,53.88372 L420.69264,53.88372 L428.19264,53.88372 L428.19264,58.10247 L428.19264,62.32122 L420.69264,62.32122 L413.19264,62.32122 L413.19264,78.79958 L413.19264,95.27795 L416.04863,98.13395 C418.49037,100.57568 419.39112,100.91099 422.25866,100.44565 C424.10338,100.14629 426.3559,99.22878 427.26425,98.40672 C428.80372,97.01352 429.07441,97.19582 431.25227,101.09244 L433.58873,105.27282 L429.12319,107.70327 C424.09561,110.43963 417.4456,110.89207 412.69209,108.82121 L412.69207,108.82121 Z M501.03888,108.83601 C488.71175,104.2501 482.56762,95.1869 482.56762,81.58911 C482.56762,68.93371 487.33604,60.95652 498.05529,55.67946 C503.68342,52.90874 504.6116,52.73636 511.85567,53.11658 C528.61629,53.99629 537.88012,63.84091 537.88012,80.77263 L537.88012,86.69622 L515.84887,86.69622 C495.02898,86.69622 493.81762,86.79172 493.81762,88.43258 C493.81762,91.30713 497.79788,96.25244 501.78637,98.33342 C507.68089,101.40887 517.30468,101.08742 523.20734,97.61792 L527.75329,94.94587 L530.96864,98.06231 L534.18401,101.17876 L532.04769,102.8771 C526.16138,107.55662 520.66243,109.52339 512.56762,109.84442 C507.28912,110.05375 503.39702,109.71334 501.03888,108.83605 L501.03888,108.83601 Z M526.26773,74.27433 C524.93968,67.49373 519.49149,63.05707 511.87709,62.55552 C507.59118,62.27322 505.60305,62.64842 502.26269,64.36979 C497.66924,66.73697 493.81762,71.63813 493.81762,75.11611 L493.81762,77.32122 L510.34106,77.32122 L526.86449,77.32122 L526.26773,74.27434 L526.26773,74.27433 Z M680.09699,108.78002 C667.72103,104.36561 660.9819,93.50929 661.82779,79.34949 C662.31685,71.16289 664.45378,66.12256 669.63012,60.94621 C674.79893,55.7774 679.84915,53.63281 687.99884,53.14588 C696.82709,52.61842 702.84257,54.41052 708.50077,59.25373 C714.33944,64.25141 716.92212,70.43098 716.93346,79.43058 L716.94246,86.69621 L694.80957,86.69621 L672.67669,86.69621 L673.28945,89.13761 C674.34987,93.36269 676.63263,95.90483 681.58004,98.37022 C688.83559,101.98581 698.09887,101.2446 704.32371,96.55035 L707.17371,94.40111 L710.21293,98.02115 L713.25215,101.64121 L709.31888,104.49045 C707.15559,106.05753 703.26871,107.96835 700.68138,108.7367 C694.88205,110.45892 684.86278,110.48 680.09682,108.78 L680.09699,108.78002 Z M705.38939,73.9408 C704.58429,68.97959 702.323,66.13404 697.4848,63.99387 C689.05623,60.26551 677.26848,63.94567 674.21257,71.25949 C671.60111,77.50959 671.12884,77.32121 689.40903,77.32121 L705.93795,77.32121 L705.38939,73.9408 Z M813.76254,108.63731 C808.01096,106.52186 801.02324,99.84194 798.55154,94.09635 C795.53423,87.08241 795.08761,80.40529 797.1302,72.84673 C798.58497,67.46338 799.59968,65.77482 804.06044,61.31424 C810.19079,55.18413 815.63521,52.94621 824.41821,52.94621 C835.52338,52.94621 845.33768,58.7538 849.30355,67.67207 C850.26832,69.8416 851.31932,75.00957 851.6391,79.15644 L852.22052,86.69621 L829.58158,86.69621 C817.13015,86.69621 806.94262,86.92069 806.94262,87.19507 C806.94262,89.18518 810.00757,94.24195 812.46926,96.31333 C819.35147,102.10433 831.92567,102.19529 838.69057,96.503 L841.43425,94.19434 L844.4017,97.57409 C847.23238,100.79805 847.29485,101.03592 845.75711,102.7351 C844.8705,103.71481 841.82035,105.65376 838.97901,107.0439 C832.52197,110.20304 820.14576,110.98508 813.76254,108.63731 L813.76254,108.63731 Z M839.75161,74.74308 C839.74361,68.31779 832.32098,62.3856 824.23606,62.3418 C818.19531,62.3091 811.20275,66.30043 808.87434,71.11029 C807.8119,73.30501 806.94262,75.60031 806.94262,76.21095 C806.94262,77.024 811.33447,77.32121 823.34887,77.32121 L839.75512,77.32121 L839.75112,74.74308 L839.75161,74.74308 Z M875.2932,107.95236 C870.04156,105.17982 866.27901,99.80889 865.07426,93.36513 C864.55499,90.58772 864.13012,80.56819 864.13012,71.0995 L864.13012,53.88371 L870.22387,53.88371 L876.31762,53.88371 L876.31762,72.25765 C876.31762,92.75116 877.01699,95.86782 882.21935,98.55806 C886.3046,100.67063 894.75263,99.90324 898.75063,97.05642 C903.8382,93.43373 904.44262,90.69425 904.44262,71.25757 L904.44262,53.88371 L910.06762,53.88371 L915.69262,53.88371 L915.69262,81.53996 L915.69262,109.19621 L910.06762,109.19621 L904.44262,109.19621 L904.44262,104.29511 L904.44262,99.394 L901.63125,102.80467 C895.59364,110.12935 883.78749,112.43682 875.2932,107.95236 L875.2932,107.95236 Z M263.19262,72.63372 L263.19262,36.07122 L288.97387,36.07122 L314.75512,36.07122 L314.75512,41.69622 L314.75512,47.32122 L295.06762,47.32122 L275.38012,47.32122 L275.38012,57.16497 L275.38012,67.00872 L293.19262,67.00872 L311.00512,67.00872 L311.00512,72.63372 L311.00512,78.25872 L293.19262,78.25872 L275.38012,78.25872 L275.38012,88.10247 L275.38012,97.94622 L296.00512,97.94622 L316.63012,97.94622 L316.63012,103.57122 L316.63012,109.19622 L289.91137,109.19622 L263.19262,109.19622 L263.19262,72.63372 Z M331.63012,81.53997 L331.63012,53.88372 L337.25512,53.88372 L342.88012,53.88372 L342.88012,58.60384 L342.88012,63.32396 L345.73382,60.07378 C350.34213,54.8252 355.83371,52.67197 363.50571,53.10548 C371.65851,53.56615 376.76354,56.78383 380.32889,63.70905 C382.64426,68.20633 382.73472,69.03968 383.05005,88.77859 L383.37624,109.19622 L377.19068,109.19622 L371.00512,109.19622 L371.00512,90.82228 C371.00512,70.48391 370.29102,67.20449 365.30025,64.62367 C361.14871,62.47683 353.12856,62.86046 349.34688,65.38678 C343.51967,69.27961 342.88321,71.86187 342.88157,91.61809 L342.88057,109.19622 L337.25557,109.19622 L331.63012,109.19622 L331.63057,81.53997 L331.63012,81.53997 Z M443.19262,81.53997 L443.19262,53.88372 L449.28637,53.88372 L455.38012,53.88372 L455.38012,59.04267 L455.38012,64.20162 L458.8318,60.38103 C462.51176,56.30775 468.14014,52.94622 471.28027,52.94622 C472.99259,52.94622 473.19262,53.5346 473.19262,58.57122 C473.19262,63.90612 473.07489,64.19622 470.9099,64.19622 C465.23513,64.19622 459.94992,67.97779 457.15203,74.03997 C455.69075,77.20615 455.41809,80.23472 455.40071,93.4931 L455.38011,109.19622 L449.28636,109.19622 L443.19261,109.19622 L443.19261,81.53997 L443.19262,81.53997 Z M623.19262,81.53997 L623.19262,53.88372 L628.81762,53.88372 L634.44262,53.88372 L634.44262,59.20872 L634.44262,64.53372 L637.72637,60.69739 C640.96355,56.91547 647.59491,52.94622 650.67611,52.94622 C651.97719,52.94622 652.25512,53.91521 652.25512,58.4514 L652.25512,63.95658 L648.66534,64.53061 C643.75186,65.3163 639.20763,68.61809 636.86792,73.10247 C635.14715,76.40057 634.87585,78.80129 634.61656,93.02435 L634.32176,109.19622 L628.75719,109.19622 L623.19262,109.19622 L623.19262,81.53997 Z M731.00512,81.53997 L731.00512,53.88372 L736.63012,53.88372 L742.25512,53.88372 L742.25512,58.78482 L742.25512,63.68593 L745.06649,60.27525 C748.96987,55.53977 754.72553,52.94622 761.33122,52.94622 C770.21918,52.94622 776.10821,56.33372 780.07396,63.72747 C781.92492,67.17837 782.1108,69.1412 782.40445,88.33684 L782.72356,109.19622 L777.10537,109.19622 L771.48718,109.19622 L771.16802,90.68059 C770.881,74.0288 770.65496,71.83488 768.92255,68.88582 C766.47596,64.72101 763.61712,63.2899 757.70924,63.27254 C751.29515,63.25364 746.98459,65.6827 744.36449,70.79236 C742.40385,74.61597 742.25512,76.11487 742.25512,92.05112 L742.25512,109.19622 L736.63012,109.19622 L731.00512,109.19622 L731.00512,81.53997 Z M933.50512,81.53997 L933.50512,53.88372 L939.59887,53.88372 L945.69262,53.88372 L945.69262,59.04267 L945.69262,64.20162 L949.14431,60.38103 C952.82428,56.30775 958.45265,52.94622 961.59281,52.94622 C963.30506,52.94622 963.50512,53.5346 963.50512,58.57122 C963.50512,63.90612 963.38737,64.19622 961.2224,64.19622 C955.54762,64.19622 950.26237,67.97779 947.4645,74.03997 C946.00321,77.20615 945.73059,80.23472 945.71324,93.4931 L945.69264,109.19622 L939.59889,109.19622 L933.50512,109.19622 L933.50514,81.53997 L933.50512,81.53997 Z M1003.8,68.175 C1002.57333,66.641659 1001.05918,65.3575052 999.2575,64.3225 C997.455824,63.2874948 995.25168,62.77 992.645,62.77 C990.191654,62.77 988.064176,63.2874948 986.2625,64.3225 C984.460824,65.3575052 983.56,66.8716567 983.56,68.865 C983.56,70.4750081 984.077495,71.7783284 985.1125,72.775 C986.147505,73.7716717 987.37416,74.5766636 988.7925,75.19 C990.21084,75.8033364 991.724992,76.2633318 993.335,76.57 C994.945008,76.8766682 996.324994,77.1449989 997.475,77.375 C999.698344,77.9116694 1001.78749,78.5633295 1003.7425,79.33 C1005.69751,80.0966705 1007.38416,81.0933272 1008.8025,82.32 C1010.22084,83.5466728 1011.3325,85.0416579 1012.1375,86.805 C1012.9425,88.5683422 1013.345,90.7149874 1013.345,93.245 C1013.345,96.311682 1012.69334,98.9374891 1011.39,101.1225 C1010.08666,103.307511 1008.40001,105.089993 1006.33,106.47 C1004.25999,107.850007 1001.90251,108.846664 999.2575,109.46 C996.612487,110.073336 993.948347,110.38 991.265,110.38 C986.741644,110.38 982.774184,109.690007 979.3625,108.31 C975.950816,106.929993 972.903347,104.400018 970.22,100.72 L978.04,94.28 C979.726675,95.9666751 981.60499,97.4616602 983.675,98.765 C985.74501,100.06834 988.274985,100.72 991.265,100.72 C992.56834,100.72 993.890827,100.585835 995.2325,100.3175 C996.574173,100.049165 997.762495,99.6275029 998.7975,99.0525 C999.832505,98.4774971 1000.67583,97.7491711 1001.3275,96.8675 C1001.97917,95.9858289 1002.305,94.9700058 1002.305,93.82 C1002.305,92.286659 1001.82584,91.0216717 1000.8675,90.025 C999.909162,89.0283284 998.759173,88.2425029 997.4175,87.6675 C996.075827,87.0924971 994.657507,86.6325017 993.1625,86.2875 C991.667493,85.9424983 990.345006,85.6550012 989.195,85.425 C986.971656,84.8883307 984.863343,84.2750035 982.87,83.585 C980.876657,82.8949966 979.113341,81.9750058 977.58,80.825 C976.046659,79.6749943 974.820005,78.2183422 973.9,76.455 C972.979995,74.6916579 972.52,72.5066797 972.52,69.9 C972.52,67.0633192 973.114161,64.5908439 974.3025,62.4825 C975.490839,60.3741561 977.06249,58.6300069 979.0175,57.25 C980.97251,55.8699931 983.195821,54.8350035 985.6875,54.145 C988.179179,53.4549966 990.689987,53.11 993.22,53.11 C996.900018,53.11 1000.42665,53.7999931 1003.8,55.18 C1007.17335,56.5600069 1009.85666,58.8599839 1011.85,62.08 L1003.8,68.175 Z" id="path4259" fill="#1C419B" fill-rule="nonzero"></path>
            <circle id="path4303" stroke="#EB1C24" stroke-width="10" stroke-linecap="square" transform="translate(151.704400, 113.804470) scale(-1, 1) rotate(-180.000000) translate(-151.704400, -113.804470) " cx="151.7044" cy="113.80447" r="20.5"></circle>
            <circle id="circle4325" stroke="#1C419B" stroke-width="10" stroke-linecap="square" transform="translate(74.803928, 130.592580) scale(-1, 1) rotate(-180.000000) translate(-74.803928, -130.592580) " cx="74.8039281" cy="130.59258" r="20.5"></circle>
            <polyline id="path4327" stroke="#1C419B" stroke-width="10" stroke-linecap="round" points="75.6165711 69.55927 75.6165711 44.94829 151.21485 0.78208 226.39451 44.18708 226.39451 131.05516 150.6136 175.20727 92.8391281 141.45118"></polyline>
            <polyline id="path4329" stroke="#EB1C24" stroke-width="10" stroke-linecap="round" points="133.74596 102.35287 75.8102511 68.90367 -1.42108547e-14 112.67274 -1.42108547e-14 200.3739 74.5629801 243.42285 150.58822 199.52966 150.58822 174.37937"></polyline>
            <path d="M75.6165711,69.55927 L75.6165711,44.94829" id="path4413" stroke="#1C419B" stroke-width="10" stroke-linecap="round"></path>
        </g>
    </g>
</svg>